ModelForces
version=1
nRows=4
nColumns=155
inDegrees=no

This file contains the forces exerted on a model during a simulation.

A force is a generalized force, meaning that it can be either a force (N) or a torque (Nm).

Units are S.I. units (second, meters, Newtons, ...)
Angles are in degrees.

endheader
time	glut_med1_r	glut_med2_r	glut_med3_r	glut_min1_r	glut_min2_r	glut_min3_r	semimem_r	semiten_r	bifemlh_r	bifemsh_r	sar_r	add_long_r	add_brev_r	add_mag1_r	add_mag2_r	add_mag3_r	tfl_r	pect_r	grac_r	glut_max1_r	glut_max2_r	glut_max3_r	iliacus_r	psoas_r	quad_fem_r	gem_r	peri_r	rect_fem_r	vas_med_r	vas_int_r	vas_lat_r	med_gas_r	lat_gas_r	soleus_r	tib_post_r	flex_dig_r	flex_hal_r	tib_ant_r	per_brev_r	per_long_r	per_tert_r	ext_dig_r	ext_hal_r	glut_med1_l	glut_med2_l	glut_med3_l	glut_min1_l	glut_min2_l	glut_min3_l	semimem_l	semiten_l	bifemlh_l	bifemsh_l	sar_l	add_long_l	add_brev_l	add_mag1_l	add_mag2_l	add_mag3_l	tfl_l	pect_l	grac_l	glut_max1_l	glut_max2_l	glut_max3_l	iliacus_l	psoas_l	quad_fem_l	gem_l	peri_l	rect_fem_l	vas_med_l	vas_int_l	vas_lat_l	med_gas_l	lat_gas_l	soleus_l	tib_post_l	flex_dig_l	flex_hal_l	tib_ant_l	per_brev_l	per_long_l	per_tert_l	ext_dig_l	ext_hal_l	ercspn_r	ercspn_l	intobl_r	intobl_l	extobl_r	extobl_l	femur_lat_meniscii_r.femur_lat_r.force.X	femur_lat_meniscii_r.femur_lat_r.force.Y	femur_lat_meniscii_r.femur_lat_r.force.Z	femur_lat_meniscii_r.femur_lat_r.torque.X	femur_lat_meniscii_r.femur_lat_r.torque.Y	femur_lat_meniscii_r.femur_lat_r.torque.Z	femur_lat_meniscii_r.meniscus_lat_r.force.X	femur_lat_meniscii_r.meniscus_lat_r.force.Y	femur_lat_meniscii_r.meniscus_lat_r.force.Z	femur_lat_meniscii_r.meniscus_lat_r.torque.X	femur_lat_meniscii_r.meniscus_lat_r.torque.Y	femur_lat_meniscii_r.meniscus_lat_r.torque.Z	femur_med_meniscii_r.femur_med_r.force.X	femur_med_meniscii_r.femur_med_r.force.Y	femur_med_meniscii_r.femur_med_r.force.Z	femur_med_meniscii_r.femur_med_r.torque.X	femur_med_meniscii_r.femur_med_r.torque.Y	femur_med_meniscii_r.femur_med_r.torque.Z	femur_med_meniscii_r.meniscus_med_r.force.X	femur_med_meniscii_r.meniscus_med_r.force.Y	femur_med_meniscii_r.meniscus_med_r.force.Z	femur_med_meniscii_r.meniscus_med_r.torque.X	femur_med_meniscii_r.meniscus_med_r.torque.Y	femur_med_meniscii_r.meniscus_med_r.torque.Z	femur_med_tibia_r.tibia_upper_r.force.X	femur_med_tibia_r.tibia_upper_r.force.Y	femur_med_tibia_r.tibia_upper_r.force.Z	femur_med_tibia_r.tibia_upper_r.torque.X	femur_med_tibia_r.tibia_upper_r.torque.Y	femur_med_tibia_r.tibia_upper_r.torque.Z	femur_med_tibia_r.femur_med_r.force.X	femur_med_tibia_r.femur_med_r.force.Y	femur_med_tibia_r.femur_med_r.force.Z	femur_med_tibia_r.femur_med_r.torque.X	femur_med_tibia_r.femur_med_r.torque.Y	femur_med_tibia_r.femur_med_r.torque.Z	femur_lat_tibia_r.tibia_upper_r.force.X	femur_lat_tibia_r.tibia_upper_r.force.Y	femur_lat_tibia_r.tibia_upper_r.force.Z	femur_lat_tibia_r.tibia_upper_r.torque.X	femur_lat_tibia_r.tibia_upper_r.torque.Y	femur_lat_tibia_r.tibia_upper_r.torque.Z	femur_lat_tibia_r.femur_lat_r.force.X	femur_lat_tibia_r.femur_lat_r.force.Y	femur_lat_tibia_r.femur_lat_r.force.Z	femur_lat_tibia_r.femur_lat_r.torque.X	femur_lat_tibia_r.femur_lat_r.torque.Y	femur_lat_tibia_r.femur_lat_r.torque.Z	aACL_R	pACL_R	aPCL_R	pPCL_R	aMCL_R	mMCL_R	pMCL_R	aLCL_R	mLCL_R	pLCL_R	aPCL_L	pPCL_L	aMCL_L	aLCL_L
      0.11319351	     11.42248571	     10.96768094	     11.82818768	      5.01021707	      5.74959002	      6.39762263	    112.01442793	    166.46060059	    217.25909557	    353.28803683	    126.20959155	     10.94934809	      7.75749317	      0.00000000	      4.74287093	      8.22683790	      5.02114346	      4.09628039	     99.69275001	      7.09059624	     10.79512160	      8.14347514	     32.41352377	     24.07775020	      6.89561618	      4.45946267	      4.89888965	     37.81872575	      0.00000000	      0.00000000	      0.00000000	     35.32018219	      0.59218686	      0.00000000	      0.00000000	      0.46759439	      0.00000000	     28.39833390	      4.56561755	      4.92691304	      5.99601078	     17.90758081	      5.27782321	     11.42248571	     10.96768094	     11.82818768	      5.01021707	      5.74959002	      6.39762263	      0.00000000	      8.25441344	     14.82927166	     13.79425299	      2.85525237	     10.94934809	      7.75749317	      0.00000000	      4.74287093	      8.22683790	      6.69614305	      4.09628039	      2.96084657	      7.09059624	     10.79512160	      8.14347514	     32.41352377	     24.07775020	      6.89561618	      4.45946267	      4.89888965	     22.77856753	      0.00000000	      0.00000000	      0.00000000	     17.83565043	      9.00813905	     58.12531104	     57.18230738	      7.40719186	      6.76815686	     16.63013888	      9.25484756	     21.56299490	      3.71777865	     11.96020484	      4.00523921	     47.18663538	     47.18663538	     17.88195715	     17.88195715	     34.86293939	     34.86293939	     51.61014209	    260.89053254	     34.65998383	    -20.51442051	      1.29960908	     20.15582955	    -51.61014209	   -260.89053254	    -34.65998383	      7.77476816	     -1.77900650	      2.42252827	    -20.37830631	     54.41276553	      9.21691282	     -2.49453505	      0.46930027	     -8.31029153	     20.37830631	    -54.41276553	     -9.21691282	     -0.92265345	     -0.52975414	      1.11188865	   -132.05929943	   -554.03320558	    127.38732314	    -13.21741057	      3.20120634	      0.23307003	    132.05929943	    554.03320558	   -127.38732314	     63.01361830	     -2.07164949	     56.30210266	    -41.23131560	   -141.26083822	    -35.50030554	      4.75633307	     -1.45993914	      0.28658023	     41.23131560	    141.26083822	     35.50030554	    -18.05242097	      0.99177799	     17.01884922	      8.64094352	    -12.38192555	     26.52016990	     62.64950706	      0.00000000	      0.00000000	      0.00000000	      0.00000000	      0.00000000	      0.00000000	      0.00000000	      0.00000000	      0.00000001	      0.00000000
      0.11423041	     11.74921600	     10.89464046	     11.74919432	      4.97803459	      5.71413466	      6.35937873	    111.63685539	    166.50603185	    214.28397869	    351.61326517	    126.47445767	     10.87553374	      7.70811305	      0.00000000	      4.71823715	      8.16954561	      5.01956970	      4.11369048	     99.80538337	      7.04328691	     10.72256477	      8.08805395	     32.27693023	     23.92216102	      6.85693883	      4.43699412	      5.02703593	     37.66422906	      0.00000000	      0.00000000	      0.00000000	     38.12168976	      0.63763228	      0.00000000	      0.00000000	      0.17219551	      0.00000000	     28.85421560	      4.97287397	      5.17464430	      8.31086826	     18.09476649	      5.24971596	     11.74921600	     10.89464046	     11.74919432	      4.97803459	      5.71413466	      6.35937873	      0.00000000	      8.19660704	     14.80397707	     13.70370544	      2.83699486	     10.87553374	      7.70811305	      0.00000000	      4.71823715	      8.16954561	      6.66207554	      4.11369048	      2.94159699	      7.04328691	     10.72256477	      8.08805395	     32.27693023	     23.92216102	      6.85693883	      4.43699412	      5.02703593	     22.63184450	      0.00000000	      0.00000000	      0.00000000	     18.10768634	      9.10755312	     58.10399392	     57.06028784	      7.31708696	      6.67268628	     16.58149536	      9.20828932	     21.50854004	      3.69396865	     11.99733203	      4.00478148	     46.88290179	     46.88290179	     17.75891972	     17.75891972	     34.74980706	     34.74980706	     47.65488312	    256.68245728	     34.84717686	    -20.49769032	      1.18971515	     18.48162735	    -47.65488312	   -256.68245728	    -34.84717686	      7.66932581	     -1.66834817	      2.58725049	    -18.69437491	     52.62472956	      9.86561870	     -2.80639502	      0.42692090	     -7.62315990	     18.69437491	    -52.62472956	     -9.86561870	     -0.86421781	     -0.50018742	      1.05852532	   -138.44176419	   -552.59857941	    126.52844589	    -13.15367778	      3.33177054	      0.15623981	    138.44176419	    552.59857941	   -126.52844589	     62.60371044	     -2.19619111	     58.90928725	    -40.39415983	   -134.38568891	    -34.23045632	      4.53354268	     -1.43107191	      0.26938193	     40.39415983	    134.38568891	     34.23045632	    -17.36257973	      0.97331920	     16.66681023	      8.12431095	    -12.53218871	     29.08795395	     68.33457451	      0.00000000	      0.00000000	      0.00000000	      0.00000000	      0.00000000	      0.00000000	      0.00000000	      0.00000000	      0.00000001	      0.00000000
      0.11556895	     12.09019610	     10.80185179	     11.64873455	      4.93715783	      5.66910862	      6.31002065	    111.04097291	    166.43986987	    210.26603531	    348.75420503	    126.63278308	     10.78179681	      7.64538930	      0.00000000	      4.68570489	      8.09662568	      5.01973615	      4.11135904	     99.81271793	      6.98314883	     10.63041781	      8.01767444	     32.10352446	     23.72462202	      6.80595466	      4.40845130	      5.17894940	     37.25113119	      0.00000000	      0.00000000	      0.00000000	     41.69367254	      0.71977779	      0.00000000	      0.00000000	      0.00000000	      0.00000000	     29.36173028	      5.47301078	      5.47348094	     10.18799378	     18.33536798	      5.23301159	     12.09019610	     10.80185179	     11.64873455	      4.93715783	      5.66910862	      6.31002065	      0.00000000	      8.12319796	     14.76760941	     13.58870987	      2.81380437	     10.78179681	      7.64538930	      0.00000000	      4.68570489	      8.09662568	      6.61863400	      4.11135904	      2.91714860	      6.98314883	     10.63041781	      8.01767444	     32.10352446	     23.72462202	      6.80595466	      4.40845130	      5.17894940	     22.44377153	      0.00000000	      0.00000000	      0.00000000	     18.43560418	      9.22692097	     58.06479301	     56.90064141	      7.20576553	      6.55512649	     16.51477742	      9.14765431	     21.43619747	      3.66372154	     12.02484070	      3.99628758	     46.49711689	     46.49711689	     17.60267213	     17.60267213	     34.60620364	     34.60620364	     45.73460812	    258.10798531	     33.19440260	    -19.83002741	      1.14186669	     17.61851413	    -45.73460812	   -258.10798531	    -33.19440260	      7.62539851	     -1.60471229	      2.79571276	    -17.56143055	     52.88803521	     10.84418681	     -3.20351089	      0.40043695	     -7.16007718	     17.56143055	    -52.88803521	    -10.84418681	     -0.84314652	     -0.49005431	      1.04385951	   -145.50014529	   -549.73500227	    127.10387818	    -13.12146712	      3.49920371	      0.10555509	    145.50014529	    549.73500227	   -127.10387818	     62.76835069	     -2.33447539	     61.76447447	    -38.25792886	   -124.68992738	    -31.98123140	      4.20529465	     -1.35941806	      0.26995271	     38.25792886	    124.68992738	     31.98123140	    -16.19881308	      0.92448850	     15.77316032	      6.33324769	    -13.71640913	     32.53513402	     74.22838541	      0.00000000	      0.00000000	      0.00000000	      0.00000000	      0.00000000	      0.00000000	      0.00000000	      0.00000000	      0.00000001	      0.00000000
      0.11648150	     12.27857042	     10.73954923	     11.58122095	      4.90971441	      5.63888449	      6.27642318	    110.00854008	    166.24899995	    207.33543015	    346.23694485	    126.62342620	     10.71887674	      7.60327622	      0.00000000	      4.66315806	      8.04758126	      5.01748046	      4.10353555	     99.71391801	      6.94274919	     10.56856163	      7.97043310	     31.98716182	     23.59205366	      6.77078012	      4.38928695	      5.27442647	     37.26726498	      0.00000000	      0.00000000	      0.00000000	     43.93667918	      0.78261135	      0.00000000	      0.00000000	      0.00000000	      0.00000000	     27.68180222	      5.78598408	      5.65302428	      6.27719780	     18.54269093	      5.24313249	     12.27857042	     10.73954923	     11.58122095	      4.90971441	      5.63888449	      6.27642318	      0.00000000	      8.07392239	     14.74051142	     13.51151423	      2.79823457	     10.71887674	      7.60327622	      0.00000000	      4.66315806	      8.04758126	      6.58936609	      4.10353555	      2.90073570	      6.94274919	     10.56856163	      7.97043310	     31.98716182	     23.59205366	      6.77078012	      4.38928695	      5.27442647	     22.31646996	      0.00000000	      0.00000000	      0.00000000	     18.64491934	      9.30278690	     58.03062394	     56.79053321	      7.13309294	      6.47865700	     16.46692479	      9.10602162	     21.38560915	      3.64341258	     12.03088178	      3.98595994	     46.23811521	     46.23811521	     17.49779121	     17.49779121	     34.50985114	     34.50985114	     43.87709218	    259.93807287	     33.24351845	    -19.89786071	      1.08377581	     16.79309336	    -43.87709218	   -259.93807287	    -33.24351845	      7.67074685	     -1.54808712	      2.97564416	    -16.10524688	     53.21285700	     11.34484316	     -3.39862799	      0.36560947	     -6.55297284	     16.10524688	    -53.21285700	    -11.34484316	     -0.84042764	     -0.46594801	      1.00580606	   -152.80395885	   -554.48638259	    128.29265198	    -13.22975491	      3.66166504	      0.05149609	    152.80395885	    554.48638259	   -128.29265198	     63.32898365	     -2.47216282	     64.76065908	    -36.90981929	   -119.24957973	    -30.86553103	      4.02508366	     -1.31859303	      0.28081496	     36.90981929	    119.24957973	     30.86553103	    -15.60586785	      0.89465418	     15.20568941	      5.31483654	    -14.27172819	     35.32750793	     78.20097532	      0.00000000	      0.00000000	      0.00000000	      0.00000000	      0.00000000	      0.00000000	      0.00000000	      0.00000000	      0.00000001	      0.00000000
